<svg xmlns="http://www.w3.org/2000/svg" width="192" height="192" viewBox="0 0 192 192">
  <!-- Фон -->
  <rect width="192" height="192" fill="#2C1654"/>
  <!-- Внутренний фон -->
  <rect x="10" y="10" width="172" height="172" fill="#1A0A2E"/>
  <!-- Рамка (пиксельная) -->
  <rect x="8" y="8" width="176" height="4" fill="#4A0E8F"/>
  <rect x="8" y="180" width="176" height="4" fill="#4A0E8F"/>
  <rect x="8" y="8" width="4" height="176" fill="#4A0E8F"/>
  <rect x="180" y="8" width="4" height="176" fill="#4A0E8F"/>
  <!-- Pixel-art сердце (E040FB) -->
  <rect x="60" y="64" width="16" height="16" fill="#E040FB"/>
  <rect x="76" y="64" width="16" height="16" fill="#E040FB"/>
  <rect x="100" y="64" width="16" height="16" fill="#E040FB"/>
  <rect x="116" y="64" width="16" height="16" fill="#E040FB"/>
  <rect x="44" y="80" width="16" height="16" fill="#E040FB"/>
  <rect x="60" y="80" width="72" height="16" fill="#E040FB"/>
  <rect x="132" y="80" width="16" height="16" fill="#E040FB"/>
  <rect x="44" y="96" width="16" height="16" fill="#E040FB"/>
  <rect x="60" y="96" width="72" height="16" fill="#E040FB"/>
  <rect x="132" y="96" width="16" height="16" fill="#E040FB"/>
  <rect x="60" y="112" width="72" height="16" fill="#E040FB"/>
  <rect x="76" y="128" width="56" height="16" fill="#E040FB"/>
  <rect x="92" y="144" width="24" height="16" fill="#E040FB"/>
  <!-- Glitter dots -->
  <rect x="30" y="40" width="6" height="6" fill="#CE93D8"/>
  <rect x="156" y="40" width="6" height="6" fill="#CE93D8"/>
  <rect x="20" y="130" width="4" height="4" fill="#CE93D8"/>
  <rect x="168" y="130" width="4" height="4" fill="#CE93D8"/>
  <!-- Текст KV -->
  <text x="96" y="178" font-family="monospace" font-size="18" font-weight="bold" fill="#CE93D8" text-anchor="middle">KV</text>
</svg>
